<svg xmlns="http://www.w3.org/2000/svg" width="345.278" version="1.2" height="434.244" viewBox="0 0 258.9582 325.68269"><desc>Fritzing breadboard generated by brd2svg</desc><path fill="#fff" d="M0 0h258.958v263.069H0zm.472 276.682h256.625v49H.472z"/><path d="M9.821 300.72v-18.045l20.932.062c18.812.056 21.039.095 21.985.386a11.231 11.231 0 0 1 4.433 2.544c2.48 2.272 3.632 4.827 3.632 8.049 0 3.183-.946 5.395-3.333 7.792-1.668 1.675-2.933 2.38-5.202 2.898l-1.49.34 4.876 6.765c2.681 3.721 4.942 6.876 5.024 7.01.117.194-.858.246-4.629.246h-4.777l-5.085-7.06-5.085-7.059H17.469v14.119H9.82z" fill="#273272"/><path d="M51.479 296.532c.959-.731 1.562-2.058 1.42-3.121-.124-.919-.598-1.626-1.506-2.243l-.648-.442H17.469v6.478l16.633-.052 16.634-.053z" fill="#fff"/><path d="M66.342 300.776l.05-17.991h7.647l.05 17.99.05 17.992h-7.847zm13.482 14.072v-3.918l20.441-.052 20.442-.053.742-.46c1.997-1.242 2.01-4.329.022-5.468l-.764-.438-15.588-.006c-12.76-.006-15.83-.058-16.914-.287-4.99-1.058-8.716-6.043-8.33-11.145.347-4.577 3.545-8.483 8.086-9.875 1.11-.34 2.345-.36 22.06-.36h20.883l.053 3.872.053 3.873-20.446.003-20.446.003-.784.439c-2.045 1.143-2.12 3.895-.143 5.25l.702.481 15.897.117 15.898.118 1.547.528c3.79 1.293 6.674 4.48 7.47 8.257.16.755.29 1.726.29 2.157 0 1.293-.54 3.45-1.2 4.792-.828 1.69-3.165 4.06-4.821 4.892-2.492 1.252-1.42 1.199-24.308 1.199H79.824zm69.512 3.694c-3.565-.658-6.614-2.325-9.419-5.15-3.48-3.505-5.036-7.355-5.042-12.47-.004-5.075 1.468-8.78 4.935-12.412 3.398-3.56 6.588-5.172 11.144-5.63 1.38-.14 7.718-.192 18.382-.154l16.275.059.054 3.873.053 3.872H168.4c-18.776 0-18.365-.021-20.539 1.08-.537.273-1.596 1.08-2.354 1.795-1.07 1.009-1.559 1.666-2.192 2.943-.773 1.56-.819 1.752-.902 3.778-.074 1.783-.02 2.359.326 3.499 1.094 3.602 4.526 6.586 8.164 7.097.812.115 8.203.195 18.09.197l16.716.004v7.844l-17.697-.022c-9.863-.012-18.13-.102-18.677-.203z" fill="#273272"/><path d="M223.297 317.64c-.373-.621-4.67-7.967-9.55-16.325-4.881-8.358-9.302-15.925-9.825-16.814l-.95-1.618h8.947l8.092 14.07c4.451 7.737 8.155 14.135 8.231 14.217.076.081 3.811-6.228 8.3-14.02l8.162-14.169 4.45-.053 4.45-.053-.285.445c-.157.245-4.856 8.32-10.442 17.946l-10.157 17.5h-8.746zm-32.882-16.815v-3.432h14.903v6.863h-14.903z" fill="#f7b217"/><path d="M7.469 143.765V39.26h29.848c18.795 0 30.996.125 32.948.337 20.373 2.217 34.616 14.939 38.204 34.126.763 4.082.77 11.197.011 15.476-2.773 15.68-12.918 27.776-27.534 32.83-1.796.621-4.812 1.454-6.701 1.852-3.364.707-3.935.724-27.448.825l-24.012.103v17.448l17.642 20.857c9.703 11.472 29.876 35.325 44.828 53.008l27.185 32.149H7.468zm161.026 104.107c.13-.22 1.628-2.194 3.328-4.387 1.7-2.194 20.86-28.831 42.579-59.194 21.719-30.362 39.615-55.34 39.77-55.507.162-.175.281 25.025.281 59.592v59.895h-43.097c-34.392 0-43.05-.08-42.86-.399z" fill="#273272"/><path d="M110.838 190.462c-16.223-19.166-29.535-34.934-29.581-35.04-.046-.107 1.174-.386 2.712-.62 7.264-1.11 14.686-3.49 21.943-7.036 25.749-12.58 40.451-39.62 38.727-71.224-1.137-20.818-9.472-39.848-23.203-52.975-9.769-9.34-21.598-15.268-35.865-17.975l-3.911-.743 86.396-.026 86.397-.026V67.82l-54.13 75.786c-41.376 57.927-54.773 76.463-56.851 78.658-1.496 1.58-2.814 2.911-2.928 2.958-.115.048-13.482-15.595-29.706-34.76z" fill="#f7b217"/></svg>